<svg xmlns="http://www.w3.org/2000/svg" viewBox="0 0 1005.3 656.9" width="1005" height="657">
  <rect width="100%" height="100%" fill="#f4f1ea"/>
  <path fill="#17161a" d="M226.44 225.64L226.44 225.64Q226.44 274.84 234.84 306.04L234.84 306.04Q244.84 280.44 251.44 248.64Q258.04 216.84 258.04 203.64L258.04 203.64Q258.04 161.24 247.24 161.24L247.24 161.24Q238.04 161.24 232.24 184.24Q226.44 207.24 226.44 225.64ZM285.64 356.84L285.64 356.84L300.84 352.84Q306.04 352.84 306.04 357.24L306.04 357.24Q306.04 360.84 299.24 368.24Q292.44 375.64 279.64 383.64Q266.84 391.64 254.84 391.64L254.84 391.64Q228.44 391.64 216.84 362.84L216.84 362.84Q193.64 391.24 164.04 391.24L164.04 391.24Q148.84 391.24 142.04 380.24Q135.24 369.24 135.24 352.84L135.24 352.84Q135.24 330.84 159.44 307.64Q183.64 284.44 197.64 284.44L197.64 284.44Q201.24 284.44 202.44 288.84L202.44 288.84Q202.44 292.04 192.04 298.84L192.04 298.84Q176.44 308.44 176.44 323.64L176.44 323.64Q176.44 340.44 185.64 345.24L185.64 345.24Q192.44 349.24 198.24 349.24Q204.04 349.24 210.84 343.64L210.84 343.64Q206.44 322.04 206.44 291.44Q206.44 260.84 211.44 226.64Q216.44 192.44 227.84 164.44Q239.24 136.44 253.64 136.44L253.64 136.44Q262.84 136.44 267.24 149.24Q271.64 162.04 271.64 180.84Q271.64 199.64 263.84 243.04Q256.04 286.44 240.44 322.44L240.44 322.44Q255.24 356.84 285.64 356.84ZM338.84 331.24Q345.64 328.84 352.64 315.84Q359.64 302.84 359.64 294.44Q359.64 286.04 353.24 285.64L353.24 285.64Q343.64 285.64 339.64 294.24Q335.64 302.84 335.64 313.04Q335.64 323.24 338.84 331.24L338.84 331.24ZM373.24 357.24L373.24 357.24Q384.44 357.24 391.84 352.24Q399.24 347.24 405.84 339.24Q412.44 331.24 416.24 331.24Q420.04 331.24 420.04 334.84L420.04 334.84Q420.04 337.24 418.44 340.44L418.44 340.44Q405.24 361.64 385.64 377.84Q366.04 394.04 344.04 394.04Q322.04 394.04 312.24 383.44Q302.44 372.84 302.44 355.24L302.44 355.24Q302.44 324.84 325.24 293.04Q348.04 261.24 372.44 261.24L372.44 261.24Q385.24 261.24 385.24 271.64L385.24 271.64Q385.24 285.64 376.44 300.64Q367.64 315.64 344.04 341.24L344.04 341.24Q354.84 357.24 373.24 357.24ZM469.64 194.04L469.64 194.04Q469.64 188.84 467.04 183.64Q464.44 178.44 461.24 178.44L461.24 178.44Q448.44 178.44 444.44 248.44L444.44 248.44Q442.44 276.04 441.24 304.04L441.24 304.04Q469.64 233.64 469.64 194.04ZM425.24 400.04Q411.24 398.04 402.04 391.04Q392.84 384.04 392.84 380.24Q392.84 376.44 395.64 373.24L395.64 373.24Q398.04 370.04 403.24 363.64L403.24 363.64Q415.64 349.64 417.24 347.24Q418.84 344.84 421.24 344.84Q423.64 344.84 426.04 345.64L426.04 345.64Q428.44 176.04 451.24 144.04L451.24 144.04Q457.24 135.24 465.24 135.24L465.24 135.24Q486.04 135.24 486.04 167.64Q486.04 200.04 470.24 249.24Q454.44 298.44 440.44 325.64L440.44 325.64Q440.04 336.44 440.04 352.84L440.04 352.84L439.64 355.64Q448.44 360.84 459.84 360.84Q471.24 360.84 477.24 357.24Q483.24 353.64 486.04 353.64Q488.84 353.64 488.84 356.44L488.84 356.44Q488.84 370.84 470.64 385.64Q452.44 400.44 437.24 400.84L437.24 400.84L436.84 409.64Q438.84 412.04 441.84 416.24Q444.84 420.44 450.04 435.24Q455.24 450.04 455.24 468.64Q455.24 487.24 447.04 504.44Q438.84 521.64 430.04 521.64L430.04 521.64Q422.44 521.64 422.04 516.04L422.04 516.04Q421.24 505.64 421.24 493.04Q421.24 480.44 423.24 448.04Q425.24 415.64 425.24 412.84L425.24 412.84L425.24 400.04ZM522.84 331.24Q529.64 328.84 536.64 315.84Q543.64 302.84 543.64 294.44Q543.64 286.04 537.24 285.64L537.24 285.64Q527.64 285.64 523.64 294.24Q519.64 302.84 519.64 313.04Q519.64 323.24 522.84 331.24L522.84 331.24ZM557.24 357.24L557.24 357.24Q568.44 357.24 575.84 352.24Q583.24 347.24 589.84 339.24Q596.44 331.24 600.24 331.24Q604.04 331.24 604.04 334.84L604.04 334.84Q604.04 337.24 602.44 340.44L602.44 340.44Q589.24 361.64 569.64 377.84Q550.04 394.04 528.04 394.04Q506.04 394.04 496.24 383.44Q486.44 372.84 486.44 355.24L486.44 355.24Q486.44 324.84 509.24 293.04Q532.04 261.24 556.44 261.24L556.44 261.24Q569.24 261.24 569.24 271.64L569.24 271.64Q569.24 285.64 560.44 300.64Q551.64 315.64 528.04 341.24L528.04 341.24Q538.84 357.24 557.24 357.24ZM621.64 325.44Q621.64 339.64 630.04 349.44Q638.44 359.24 652.24 359.24Q666.04 359.24 675.04 355.84Q684.04 352.44 688.84 349.04Q693.64 345.64 696.04 345.64L696.04 345.64Q699.64 345.64 699.64 349.24L699.64 349.24Q699.64 361.64 676.44 378.64Q653.24 395.64 622.44 395.64L622.44 395.64Q602.84 395.64 593.04 385.84Q583.24 376.04 583.24 360.04L583.24 360.04Q583.24 331.24 607.84 302.64Q632.44 274.04 664.44 274.04L664.44 274.04Q672.04 274.04 676.64 278.64Q681.24 283.24 681.24 291.84Q681.24 300.44 671.44 311.04Q661.64 321.64 651.64 321.64L651.64 321.64Q648.84 321.64 648.84 318.84Q648.84 316.04 651.84 312.84Q654.84 309.64 654.84 305.04Q654.84 300.44 651.84 296.04Q648.84 291.64 645.24 291.64L645.24 291.64Q634.44 291.64 628.04 301.44Q621.64 311.24 621.64 325.44ZM625.64 254.44L625.64 254.44Q625.64 246.44 638.44 242.44L638.44 242.44Q658.04 234.04 702.44 216.44L702.44 216.44Q710.44 155.64 726.44 155.64L726.44 155.64Q736.84 155.64 736.84 188.84L736.84 188.84Q736.84 198.44 736.44 203.24L736.44 203.24Q797.24 180.04 818.04 174.84Q838.84 169.64 851.24 169.64L851.24 169.64Q870.04 169.64 870.04 183.24L870.04 183.24Q870.04 187.64 864.44 190.44L864.44 190.44Q839.64 202.84 833.64 202.84L833.64 202.84Q832.44 202.84 829.64 201.04Q826.84 199.24 823.24 199.24Q819.64 199.24 808.44 202.04L808.44 202.04Q785.64 208.04 733.64 225.24L733.64 225.24Q728.84 256.44 719.64 270.04L719.64 270.04Q721.24 315.64 731.64 331.64L731.64 331.64Q736.44 339.24 745.44 344.84Q754.44 350.44 767.64 350.44Q780.84 350.44 793.64 338.44L793.64 338.44Q796.04 336.04 797.64 336.04L797.64 336.04Q800.84 336.04 800.84 341.24L800.84 341.24Q800.84 358.04 778.44 375.04Q756.04 392.04 735.64 392.04L735.64 392.04Q695.24 392.04 695.24 326.44L695.24 326.44Q695.24 285.24 700.04 237.64L700.04 237.64Q666.84 250.44 651.04 258.44Q635.24 266.44 632.44 266.44Q629.64 266.44 627.64 262.44Q625.64 258.44 625.64 254.44Z"/>
</svg>
